<svg xmlns="http://www.w3.org/2000/svg" xmlns:xlink="http://www.w3.org/1999/xlink" class="canvas" viewBox="0 0 1920 1080" preserveAspectRatio="xMaxYMid slice" version="1.1"><rect width="1920" height="1080" fill="hsl(97, 65%, 15%)"/><defs><linearGradient x1="0.5" y1="0" x2="0" y2="1" id="SvgjsLinearGradient1175"><stop stop-color="#618a28" offset="0"/><stop stop-color="#06140c" offset="0.1"/></linearGradient><linearGradient x1="0.5" y1="0" x2="0" y2="1" id="SvgjsLinearGradient1176"><stop stop-color="#4e8a28" offset="0"/><stop stop-color="#06140e" offset="0.22857142857142856"/></linearGradient><linearGradient x1="0.5" y1="0" x2="0" y2="1" id="SvgjsLinearGradient1177"><stop stop-color="#288a2a" offset="0"/><stop stop-color="#061414" offset="0.3571428571428571"/></linearGradient><linearGradient x1="0.5" y1="0" x2="0" y2="1" id="SvgjsLinearGradient1178"><stop stop-color="#d3f2c0" offset="0"/><stop stop-color="#42d79e" offset="0.48571428571428565"/></linearGradient><linearGradient x1="0.5" y1="0" x2="0" y2="1" id="SvgjsLinearGradient1179"><stop stop-color="#c9f2c0" offset="0"/><stop stop-color="#42d7bb" offset="0.6142857142857142"/></linearGradient><linearGradient x1="0.5" y1="0" x2="0" y2="1" id="SvgjsLinearGradient1180"><stop stop-color="#e7f2c0" offset="0"/><stop stop-color="#42d762" offset="0.7428571428571429"/></linearGradient><linearGradient x1="0.5" y1="0" x2="0" y2="1" id="SvgjsLinearGradient1181"><stop stop-color="#e7f2c0" offset="0"/><stop stop-color="#42d762" offset="0.8714285714285713"/></linearGradient></defs><path d="M0,-568.0869783801828C58.89955477284877,-556.5852454267124,220.76390121122816,-536.9301408846235,353.3973286370926,-499.0765806593606C486.03075606295704,-461.2230204340978,665.713328486778,-384.2641621211982,795.8005645551865,-340.9656170286059C925.887800623595,-297.6670719360136,1004.2304375728344,-275.9052046103397,1133.920745047544,-239.28531010380698C1263.6110525222537,-202.6654155972743,1442.9292002447014,-156.4459719433471,1573.9424094034441,-121.24624998940973C1704.9556185621868,-86.04652803547236,1862.323734900574,-43.61352364838726,1920,-28.08697838018276L 1920 1080 L 0 1080 Z" fill="url(#SvgjsLinearGradient1175)"/><path d="M0,-442.15124434599255C49.60286971257077,-428.6573919390754,184.73356037667895,-391.0699433924241,297.61721827542465,-361.18812990448953C410.50087617417034,-331.306316416555,567.7618016061906,-300.99374825751744,677.3019473924741,-262.8603634183854C786.8420931787575,-224.7269785792534,851.811240756724,-161.22932086395312,954.8580929931255,-132.38782086969738C1057.904945229527,-103.54632087544165,1184.5327193354897,-117.17182382355575,1295.583060810883,-89.81136345285103C1406.6334022862761,-62.4509030821463,1517.0906519806315,-1.8826975442311706,1621.1601418454843,31.77494135453096C1725.2296317103371,65.43258025329308,1870.1933569742473,98.7412151755233,1920,112.13446993972175L 1920 1080 L 0 1080 Z" fill="url(#SvgjsLinearGradient1176)"/><path d="M0,-300.56108981935375C46.888445799659735,-285.5509061617955,171.2715331486233,-246.56734852495796,281.3306747979584,-210.4999878740043C391.3898164472935,-174.43262722305062,544.2488575611204,-122.17212352898753,660.3548498960108,-84.15692591363177C776.4608422309012,-46.141728298276014,870.0930669148438,-5.175196627543432,977.9666288073009,17.59119781813021C1085.840190699758,40.35759226380385,1199.1188868876154,24.889539239957035,1307.5962212507538,52.4414407604101C1416.0735556138923,79.99334228086317,1526.7633385279244,146.97445727557115,1628.830634986132,182.9026069408486C1730.8979314443397,218.83075660612607,1871.4717724976886,253.82571678353716,1920,268.01033875207486L 1920 1080 L 0 1080 Z" fill="url(#SvgjsLinearGradient1177)"/><path d="M0,-134.66269743445346C58.17476959991016,-123.51117783378061,242.66058001259142,-103.5874002121665,349.04861759946095,-67.75357983041636C455.4366551863305,-31.919759448666213,534.4361952732636,49.26777025730824,638.3282255212171,80.3402248560474C742.2202557691705,111.41267945478656,869.3864139522007,86.89720699671592,972.4007990871817,118.68114776201863C1075.4151842221627,150.46508852732134,1157.625677701214,229.09719544490804,1256.4145363311031,271.04386944786364C1355.2033949609922,312.99054345081925,1454.5363735883673,340.836095783948,1565.1339508665167,370.3611917797523C1675.731528144666,399.8862877755566,1860.8556584777527,435.22223648219995,1920,448.19444542268945L 1920 1080 L 0 1080 Z" fill="url(#SvgjsLinearGradient1178)"/><path d="M0,-31.69311056553039C38.12110088681602,-13.441466339673024,129.28193231595043,41.44429107683319,228.72660532089614,77.81675478961381C328.17127832584185,114.18921850239443,494.2609812290051,161.0392142725988,596.6680380296742,186.54167171115336C699.0750948303433,212.0441291497079,766.5776485328502,209.20518050381793,843.1689461249109,230.8314994209412C919.7602437169717,252.4578183380645,970.244964377558,290.74565615623527,1056.2158235820384,316.2995852138931C1142.1866827865188,341.853514271551,1260.6969362703642,360.03139892803233,1358.9941013517937,384.15507376688845C1457.2912664332232,408.27874860574457,1552.4978309625815,430.8258554452901,1645.998814070616,461.0416342470298C1739.4997971786504,491.2574130487695,1874.333135678436,548.0483945222772,1920,565.4497465773268L 1920 1080 L 0 1080 Z" fill="url(#SvgjsLinearGradient1179)"/><path d="M0,77.29194705210844C67.71395141237117,107.01877091559908,286.16316669773806,217.23355097360758,406.283708474227,255.65289023305223C526.4042502507159,294.0722294924969,587.8519697250858,266.8984810634414,720.7232506589336,307.8079826087763C853.5945315927813,348.71748415411116,1061.6046490922583,458.46231113701356,1203.5113940773138,501.1098995050616C1345.4181390623692,543.7574878731097,1452.7489529154846,532.4250763211282,1572.1637205692655,563.6935128170646C1691.5784882230464,594.961949313001,1862.0272867615442,667.8826842034107,1920,688.7205184806799L 1920 1080 L 0 1080 Z" fill="url(#SvgjsLinearGradient1180)"/><path d="M0,266.1350736434229C39.88744769237895,272.98680436782126,158.5845692200361,281.4965267073845,239.3246861542737,307.2454579898132C320.0648030885113,332.9943892722419,400.0511024663256,395.7491684114692,484.4407016054256,420.62866133799525C568.8303007445256,445.5081542645213,674.3750842051305,423.64894943806763,745.6622809888737,456.52241554896955C816.9494777726169,489.39588165987146,841.2021118386408,589.9348451060191,912.1638823078848,617.8694580034066C983.1256527771288,645.8040709007942,1075.867718476576,600.255743792394,1171.4329038043375,624.1300929332949C1266.9980891320988,648.0044420741958,1408.4082582188385,722.7346173451934,1485.5549942744528,761.1155528488123C1562.7017303300672,799.4964883524311,1561.9058191837667,832.6267382035255,1634.3133201380244,854.4157059550082C1706.7208210922822,876.2046737064909,1872.3855533563374,885.6104171239253,1920,891.8493593577087L 1920 1080 L 0 1080 Z" fill="url(#SvgjsLinearGradient1181)"/></svg>